<?xml version="1.0" encoding="utf-8"?>
<!-- Generator: Adobe Illustrator 16.0.0, SVG Export Plug-In . SVG Version: 6.00 Build 0)  -->
<!DOCTYPE svg PUBLIC "-//W3C//DTD SVG 1.1//EN" "http://www.w3.org/Graphics/SVG/1.1/DTD/svg11.dtd">
<svg version="1.1" id="Layer_1" xmlns="http://www.w3.org/2000/svg" xmlns:xlink="http://www.w3.org/1999/xlink" x="0px" y="0px"
	 width="200px" height="200px" viewBox="0 0 200 200" enable-background="new 0 0 200 200" xml:space="preserve">
<path fill="#E7E8E3" d="M100,10L22,55v89.999L100,190l78-45.001V55L100,10z M81,118.557c0,8.36-1.729,13.75-5.542,16.17
	c-2.788,1.762-6.529,2.642-11.406,2.642c-4.877,0-8.774-0.99-11.78-2.97l0.462-5.94c4.692,1.174,8.263,1.76,10.903,1.76
	c6.232,0,9.363-3.886,9.363-11.659V56h8V118.557z M148,64.547c-14-0.732-22.32-1.1-27.053-1.1c-4.73,0-8.477,0.898-11.078,2.695
	c-2.604,1.798-4.568,5.06-5.814,9.79c-1.248,4.73-1.889,11.569-1.889,20.515c0,21.854,6.378,32.78,18.848,32.78L148,128.456v6.489
	c-9,1.613-17.757,2.421-26.997,2.421c-17.896,0-26.919-13.712-26.919-41.14c0-13.932,1.848-24.236,5.626-30.91
	c3.776-6.672,10.974-10.01,21.313-10.01c7.992,0,16.978,0.917,26.978,2.75L148,64.547L148,64.547z"/>
</svg>
